# xmcd
#
# Track frame offsets: 
#        150
#        23502
#        45518
#        67430
#        88008
#        105602
#        120359
#        138916
#        160701
#        186961
#        207767
#        234504
#        259892
#        278282
#
# Disc length: 4186 seconds
#
# Revision: 0
# Processed by: cddbd v1.5.1PL0 Copyright (c) Steve Scherf et al.
# Submitted via: ExactAudioCopy v0.95b1
#
DISCID=b610580e
DTITLE=Bet Williams - Blues Garage 2005 flat 2
DYEAR=1900
DGENRE=
TTITLE0=Black 1 and 2
TTITLE1=Tubwahun
TTITLE2=This Little Lifetime
TTITLE3=Desire
TTITLE4=Welcome To My World
TTITLE5=Sugar In The Water
TTITLE6=Angel From Montgomery
TTITLE7=Peace Of Mind
TTITLE8=Thunder And Stone
TTITLE9=Raw
TTITLE10=Blow A Little Smoke
TTITLE11=Come Into My Kitchen
TTITLE12=Someday Runaround
TTITLE13=Wild Horses
EXTD=
EXTT0=
EXTT1=
EXTT2=
EXTT3=
EXTT4=
EXTT5=
EXTT6=
EXTT7=
EXTT8=
EXTT9=
EXTT10=
EXTT11=
EXTT12=
EXTT13=
PLAYORDER=
